<?xml version="1.0" encoding="utf-8"?>
<!-- Generator: Adobe Illustrator 27.5.0, SVG Export Plug-In . SVG Version: 6.00 Build 0)  -->
<svg version="1.1" id="Layer_1" xmlns="http://www.w3.org/2000/svg" xmlns:xlink="http://www.w3.org/1999/xlink" x="0px" y="0px"
	 viewBox="0 0 319.044 284.572" style="enable-background:new 0 0 319.044 284.572;" xml:space="preserve">
<g>
	<g>
		<path style="fill:#FFFFFF;" d="M226.516,25.626H111.04c-2.715,0-5.332,1.011-7.342,2.835L30.07,95.284
			c-2.528,2.294-3.742,5.518-3.566,8.7c-0.025,0.454-0.022,0.913,0.01,1.375c0.262,3.742,2.401,6.978,5.511,8.742L160.11,273.184
			c1.701,2.216,4.214,3.729,7.051,4.153c0.54,0.081,1.081,0.121,1.618,0.121c3.277,0,6.419-1.477,8.51-4.075l127.982-158.962
			c1.174-0.666,2.224-1.549,3.089-2.615l0.263-0.323c1.734-2.136,2.576-4.815,2.427-7.495c0.178-3.183-1.036-6.408-3.565-8.704
			l-73.626-66.822C231.848,26.637,229.23,25.626,226.516,25.626z"/>
		<path style="fill:#F1F1F1;" d="M224.833,23.943H109.357c-2.715,0-5.332,1.011-7.343,2.835L28.387,93.601
			c-2.527,2.294-3.742,5.518-3.565,8.7c-0.025,0.454-0.023,0.913,0.01,1.376c0.262,3.742,2.401,6.978,5.511,8.742l128.086,159.083
			c1.7,2.216,4.214,3.728,7.051,4.153c0.54,0.081,1.081,0.121,1.618,0.121c3.277,0,6.419-1.478,8.51-4.076l127.981-158.961
			c1.174-0.665,2.225-1.549,3.09-2.614l0.263-0.323c1.733-2.136,2.576-4.815,2.427-7.495c0.178-3.183-1.036-6.408-3.566-8.704
			l-73.626-66.822C230.165,24.954,227.548,23.943,224.833,23.943z"/>
		<path style="fill:#E2E2E2;" d="M223.15,22.261H107.674c-2.714,0-5.331,1.011-7.342,2.835L26.704,91.918
			c-2.528,2.294-3.742,5.518-3.566,8.7c-0.024,0.454-0.022,0.913,0.011,1.376c0.262,3.742,2.4,6.978,5.511,8.742l128.086,159.083
			c1.7,2.215,4.214,3.729,7.051,4.153c0.54,0.081,1.08,0.12,1.618,0.12c3.277,0,6.418-1.477,8.51-4.075l127.982-158.962
			c1.174-0.666,2.224-1.549,3.09-2.614l0.263-0.323c1.733-2.136,2.576-4.815,2.427-7.495c0.177-3.183-1.036-6.408-3.566-8.704
			l-73.626-66.822C228.482,23.271,225.865,22.261,223.15,22.261z"/>
		<path style="fill:#D4D4D4;" d="M221.467,20.578H105.991c-2.715,0-5.332,1.011-7.342,2.835L25.021,90.235
			c-2.528,2.294-3.742,5.518-3.566,8.7c-0.025,0.454-0.022,0.913,0.01,1.376c0.262,3.742,2.401,6.978,5.512,8.742l128.085,159.082
			c1.701,2.216,4.214,3.729,7.051,4.154c0.54,0.08,1.081,0.12,1.618,0.12c3.277,0,6.419-1.477,8.51-4.075l127.982-158.962
			c1.174-0.666,2.224-1.549,3.09-2.614l0.262-0.324c1.734-2.135,2.576-4.815,2.428-7.495c0.177-3.183-1.037-6.408-3.566-8.704
			L228.81,23.413C226.799,21.588,224.182,20.578,221.467,20.578z"/>
		<path style="fill:#C5C5C5;" d="M219.784,18.895H104.309c-2.715,0-5.332,1.011-7.343,2.835L23.338,88.552
			c-2.527,2.295-3.742,5.518-3.565,8.7c-0.025,0.454-0.022,0.913,0.01,1.376c0.262,3.742,2.401,6.978,5.511,8.742l128.086,159.082
			c1.7,2.216,4.214,3.729,7.051,4.153c0.54,0.081,1.081,0.121,1.618,0.121c3.277,0,6.419-1.478,8.51-4.076L298.54,107.689
			c1.173-0.666,2.224-1.549,3.089-2.614l0.263-0.323c1.733-2.136,2.576-4.815,2.427-7.495c0.178-3.183-1.036-6.408-3.566-8.704
			L227.127,21.73C225.116,19.905,222.499,18.895,219.784,18.895z"/>
		<path style="fill:#B7B7B7;" d="M218.102,17.212H102.625c-2.714,0-5.331,1.011-7.342,2.835L21.655,86.869
			c-2.528,2.294-3.742,5.518-3.565,8.7c-0.025,0.454-0.022,0.913,0.01,1.376c0.262,3.742,2.4,6.978,5.511,8.742L151.696,264.77
			c1.7,2.215,4.214,3.728,7.051,4.153c0.54,0.081,1.081,0.12,1.618,0.12c3.277,0,6.419-1.477,8.51-4.075l127.982-158.962
			c1.174-0.666,2.224-1.549,3.09-2.615l0.263-0.323c1.733-2.136,2.576-4.815,2.427-7.495c0.177-3.183-1.036-6.408-3.566-8.704
			l-73.626-66.822C223.434,18.223,220.816,17.212,218.102,17.212z"/>
		<path style="fill:#A8A8A8;" d="M216.418,15.529H100.942c-2.715,0-5.331,1.011-7.342,2.835L19.973,85.187
			c-2.528,2.294-3.742,5.518-3.566,8.7c-0.025,0.454-0.022,0.913,0.011,1.376c0.261,3.742,2.4,6.978,5.511,8.742l128.086,159.082
			c1.7,2.216,4.213,3.729,7.051,4.154c0.539,0.08,1.08,0.12,1.617,0.12c3.278,0,6.419-1.477,8.511-4.075l127.981-158.962
			c1.174-0.665,2.224-1.549,3.09-2.614l0.262-0.323c1.734-2.136,2.576-4.815,2.428-7.495c0.177-3.183-1.037-6.408-3.566-8.704
			l-73.626-66.822C221.75,16.539,219.133,15.529,216.418,15.529z"/>
		<path style="fill:#9A9A9A;" d="M214.735,13.846H99.26c-2.715,0-5.332,1.011-7.342,2.835L18.29,83.503
			c-2.528,2.294-3.743,5.518-3.566,8.7c-0.025,0.454-0.022,0.913,0.01,1.376c0.262,3.742,2.401,6.978,5.511,8.742L148.33,261.403
			c1.701,2.216,4.214,3.729,7.051,4.153c0.54,0.081,1.081,0.121,1.618,0.121c3.277,0,6.419-1.478,8.51-4.076L293.491,102.64
			c1.173-0.665,2.224-1.549,3.089-2.614l0.263-0.323c1.734-2.136,2.576-4.815,2.427-7.495c0.178-3.183-1.036-6.408-3.566-8.704
			l-73.625-66.822C220.067,14.857,217.45,13.846,214.735,13.846z"/>
		<path style="fill:#8B8B8B;" d="M213.053,12.163H97.576c-2.714,0-5.331,1.011-7.342,2.835L16.607,81.821
			c-2.527,2.294-3.742,5.518-3.566,8.7c-0.025,0.454-0.022,0.913,0.01,1.376c0.262,3.742,2.401,6.978,5.511,8.742l128.086,159.083
			c1.7,2.215,4.214,3.728,7.051,4.153c0.54,0.081,1.081,0.121,1.618,0.121c3.277,0,6.419-1.477,8.51-4.076l127.982-158.961
			c1.173-0.665,2.224-1.549,3.089-2.614l0.263-0.324c1.733-2.135,2.576-4.815,2.427-7.495c0.177-3.183-1.036-6.408-3.566-8.704
			l-73.626-66.823C218.385,13.174,215.768,12.163,213.053,12.163z"/>
		<path style="fill:#7D7D7D;" d="M211.37,10.48H95.894c-2.714,0-5.331,1.011-7.342,2.835L14.924,80.138
			c-2.528,2.294-3.742,5.518-3.566,8.7c-0.024,0.454-0.021,0.913,0.011,1.376c0.262,3.742,2.4,6.978,5.511,8.742l128.086,159.082
			c1.7,2.215,4.213,3.729,7.051,4.153c0.539,0.08,1.08,0.12,1.617,0.12c3.278,0,6.419-1.477,8.511-4.075L290.125,99.274
			c1.174-0.665,2.224-1.549,3.09-2.614l0.262-0.323c1.734-2.136,2.577-4.815,2.428-7.495c0.177-3.183-1.037-6.408-3.566-8.704
			l-73.626-66.822C216.701,11.491,214.084,10.48,211.37,10.48z"/>
		<path style="fill:#6E6E6E;" d="M209.686,8.797H94.211c-2.715,0-5.332,1.011-7.342,2.835L13.241,78.455
			c-2.528,2.294-3.743,5.518-3.566,8.7c-0.025,0.454-0.022,0.913,0.01,1.375c0.262,3.742,2.401,6.978,5.511,8.742l128.086,159.082
			c1.701,2.216,4.214,3.729,7.051,4.153c0.54,0.081,1.081,0.121,1.618,0.121c3.277,0,6.419-1.477,8.51-4.075L288.442,97.592
			c1.174-0.666,2.224-1.549,3.089-2.615l0.263-0.323c1.734-2.136,2.576-4.815,2.427-7.495c0.178-3.183-1.036-6.408-3.565-8.704
			l-73.626-66.822C215.019,9.808,212.401,8.797,209.686,8.797z"/>
		<path style="fill:#606060;" d="M208.004,7.114H92.528c-2.715,0-5.332,1.011-7.343,2.836L11.559,76.772
			c-2.528,2.294-3.743,5.517-3.566,8.7c-0.025,0.454-0.023,0.913,0.01,1.376c0.262,3.742,2.401,6.978,5.511,8.742l128.086,159.083
			c1.7,2.216,4.214,3.728,7.051,4.153c0.54,0.081,1.081,0.121,1.618,0.121c3.277,0,6.419-1.478,8.51-4.076L286.76,95.909
			c1.173-0.665,2.224-1.549,3.089-2.614l0.263-0.323c1.734-2.136,2.576-4.815,2.427-7.495c0.177-3.183-1.036-6.408-3.566-8.704
			L215.346,9.95C213.336,8.125,210.719,7.114,208.004,7.114z"/>
	</g>
	<path style="fill:#FFFFFF;" d="M208.004,7.114H92.528c-2.715,0-5.332,1.011-7.343,2.836L11.559,76.772
		c-2.528,2.294-3.743,5.517-3.566,8.7c-0.025,0.454-0.023,0.913,0.01,1.376c0.262,3.742,2.401,6.978,5.511,8.742l128.086,159.083
		c1.7,2.216,4.214,3.728,7.051,4.153c0.54,0.081,1.081,0.121,1.618,0.121c3.277,0,6.419-1.478,8.51-4.076L286.76,95.909
		c1.173-0.665,2.224-1.549,3.089-2.614l0.263-0.323c1.734-2.136,2.576-4.815,2.427-7.495c0.177-3.183-1.036-6.408-3.566-8.704
		L215.346,9.95C213.336,8.125,210.719,7.114,208.004,7.114z"/>
	<g>
		<polygon style="fill:#8646E8;" points="188.031,97.788 114.491,97.788 112.479,97.517 18.9,84.862 141.571,237.221 
			150.262,248.011 150.265,248.017 150.267,248.02 158.959,237.221 281.367,85.185 		"/>
		<polygon style="fill:#551BE5;" points="208.004,18.039 187.844,18.039 112.688,18.039 92.528,18.039 18.9,84.862 114.491,97.788 
			188.031,97.788 281.367,85.185 281.63,84.862 		"/>
		<g>
			<polygon style="fill:#8646E8;" points="68.366,91.551 18.9,84.862 141.571,237.221 150.262,248.011 150.262,248.006 			"/>
			<path style="fill:#2E18A0;" d="M158.959,237.221L281.367,85.185l-93.336,12.603l0,0c-15.429,61.568-34.655,138.205-37.77,150.218
				l0.003,0.011l0.002,0.004L158.959,237.221z"/>
			<path style="fill:#8646E8;" d="M158.959,237.221L281.367,85.185l-43.178,5.829c0,0-84.813,144.979-87.928,156.992l0.003,0.011
				l0.002,0.004L158.959,237.221z"/>
			<polygon style="fill:#8C55E8;" points="150.262,248.011 150.265,248.017 150.262,248.006 			"/>
		</g>
		<path style="fill:#8C55E8;" d="M150.262,248.006c0,0.005-37.782-150.489-37.782-150.489l-10.52,90.508L150.262,248.006z"/>
		<polygon style="fill:#6D42B5;" points="150.262,248.006 188.031,97.788 200.214,185.98 		"/>
		<polygon style="fill:#551BE5;" points="18.9,84.862 149.667,129.497 281.367,85.185 188.031,97.788 112.479,97.517 		"/>
		<polygon style="fill:#4214B2;" points="196.342,63.874 187.844,19.262 112.688,19.262 101.107,63.029 18.9,86.084 114.491,99.011 
			188.031,99.011 281.367,86.407 281.63,86.084 		"/>
		<polygon style="fill:#DF79F3;" points="94.228,20.484 112.479,97.517 188.031,97.788 205.107,20.484 		"/>
		<polygon style="fill:#8646E8;" points="92.528,18.039 68.366,91.551 146.598,20.484 224.828,91.551 208.004,18.039 		"/>
		<polygon style="fill:#8646E8;" points="92.528,18.039 111.07,91.563 146.598,20.484 183.363,91.551 208.004,18.039 		"/>
		<polygon style="fill:#F7F7F7;" points="193.689,97.023 278.635,85.555 194.412,91.44 201.455,37.014 184.665,97.517 
			184.665,97.517 111.07,91.563 94.228,20.484 106.061,91.551 18.9,84.862 105.183,99.524 150.262,248.006 113.294,100.441 
			184.581,97.912 165.911,185.98 		"/>
		<path style="fill:#CFA9F1;" d="M23.26,84.862l67.846-62.498C91.105,22.364,70.124,59.136,23.26,84.862z"/>
		<path style="fill:#CFA9F1;" d="M278.635,84.862L210.79,22.364C210.79,22.364,231.771,59.136,278.635,84.862z"/>
	</g>
</g>
</svg>
